<svg xmlns="http://www.w3.org/2000/svg" viewBox="0 0 24 24">
  <g id="arrow-down">
    <path
      d="M10.5 16.035 7.404 12.94a1.5 1.5 0 0 0-2.122 2.121l5.657 5.657a1.499 1.499 0 0 0 2.122 0l5.657-5.656a1.499 1.499 0 0 0-.487-2.447 1.5 1.5 0 0 0-1.635.325L13.5 16.035V4.5a1.5 1.5 0 1 0-3 0v11.535Z"
    />
  </g>
  <g id="arrow-left">
    <path
      d="M3.283 10.94a1.5 1.5 0 0 0 0 2.12l5.656 5.658a1.503 1.503 0 0 0 2.122 0 1.5 1.5 0 0 0 0-2.122L7.965 13.5H19.5a1.5 1.5 0 1 0 0-3H7.965l3.096-3.096a1.5 1.5 0 1 0-2.122-2.121L3.283 10.94Z"
    />
  </g>
  <g id="arrow-out">
    <path
      d="M18 4.5A1.5 1.5 0 0 1 19.5 6v8a1.5 1.5 0 1 1-3 0V9.621l-9.097 9.097a1.5 1.5 0 0 1-2.12-2.122L14.377 7.5H10a1.5 1.5 0 0 1 0-3h8Z"
    />
  </g>
  <g id="arrow-right">
    <path
      d="m15.06 5.44 5.657 5.657a1.5 1.5 0 0 1 0 2.12l-5.656 5.658a1.5 1.5 0 1 1-2.122-2.122l3.096-3.096H4.5a1.5 1.5 0 1 1 0-3h11.535L12.94 7.56a1.5 1.5 0 1 1 2.122-2.121h-.002Z"
    />
  </g>
  <g id="arrow-up">
    <path
      d="M13.06 3.283a1.5 1.5 0 0 0-2.12 0L5.281 8.939a1.5 1.5 0 1 0 2.122 2.122L10.5 7.965V19.5a1.5 1.5 0 0 0 3 0V7.965l3.096 3.096a1.5 1.5 0 1 0 2.122-2.122L13.06 3.283Z"
    />
  </g>
  <g id="chevron-down">
    <path
      d="M13.06 16.06a1.5 1.5 0 0 1-2.12 0l-5.658-5.656a1.5 1.5 0 0 1 2.122-2.121L12 12.879l4.596-4.596a1.5 1.5 0 0 1 2.122 2.12l-5.657 5.658-.001-.001Z"
    />
  </g>
  <g id="circled-check">
    <path
      d="M12 2c5.523 0 10 4.477 10 10s-4.477 10-10 10S2 17.523 2 12 6.477 2 12 2Zm3.535 6.381-4.95 4.95-2.12-2.121a1 1 0 0 0-1.415 1.414l2.758 2.758a1.1 1.1 0 0 0 1.556 0l5.586-5.586a1 1 0 0 0-1.415-1.415Z"
    />
  </g>
  <g id="circled-info">
    <path
      d="M12 2c5.523 0 10 4.477 10 10s-4.477 10-10 10S2 17.523 2 12 6.477 2 12 2Zm-.01 8H11a1 1 0 0 0-.117 1.993L11 12v4.99c0 .52.394.95.9 1.004l.11.006h.49a1 1 0 0 0 .596-1.803L13 16.134V11.01c0-.52-.394-.95-.9-1.004L11.99 10ZM12 7a1 1 0 1 0 0 2 1 1 0 0 0 0-2Z"
    />
  </g>
  <g id="circled-x">
    <path
      d="M12 2c5.523 0 10 4.477 10 10s-4.477 10-10 10S2 17.523 2 12 6.477 2 12 2ZM9.879 8.464a1 1 0 0 0-1.498 1.32l.084.095 2.12 2.12-2.12 2.122a1 1 0 0 0 1.32 1.498l.094-.083L12 13.414l2.121 2.122a1 1 0 0 0 1.498-1.32l-.083-.095L13.414 12l2.122-2.121a1 1 0 0 0-1.32-1.498l-.095.083L12 10.586 9.879 8.464Z"
    />
  </g>
  <g id="ellipsis">
    <path
      d="M5 10a2 2 0 1 1 0 4 2 2 0 0 1 0-4Zm7 0a2 2 0 1 1 0 4 2 2 0 0 1 0-4Zm7 0a2 2 0 1 1 0 4 2 2 0 0 1 0-4Z"
    />
  </g>
  <g id="inbox">
    <path
      d="M3 6a3 3 0 0 1 3-3h12a3 3 0 0 1 3 3v12a3 3 0 0 1-3 3H6a3 3 0 0 1-3-3V6Zm11 8a1 1 0 0 1 1-1h4V6a1 1 0 0 0-1-1H6a1 1 0 0 0-1 1v7h4a1 1 0 0 1 1 1 2 2 0 0 0 4 0Z"
    />
  </g>
  <g id="looking-glass">
    <path
      d="M5.5 10a4.5 4.5 0 1 1 9 0 4.5 4.5 0 0 1-9 0ZM10 2.5a7.5 7.5 0 1 0 4.136 13.757l4.803 4.804a1.5 1.5 0 0 0 2.122-2.122l-4.804-4.803A7.5 7.5 0 0 0 10 2.5Z"
    />
  </g>
  <g id="plus">
    <path
      d="M10.5 20a1.5 1.5 0 1 0 3 0v-6.5H20a1.5 1.5 0 1 0 0-3h-6.5V4a1.5 1.5 0 1 0-3 0v6.5H4a1.5 1.5 0 1 0 0 3h6.5V20Z"
    />
  </g>
  <g id="user-profile">
    <path
      d="M12 2C6.477 2 2 6.477 2 12s4.477 10 10 10 10-4.477 10-10S17.523 2 12 2ZM8.5 9.5a3.5 3.5 0 1 1 7 0 3.5 3.5 0 0 1-7 0Zm9.758 7.484A7.985 7.985 0 0 1 12 20a7.985 7.985 0 0 1-6.258-3.016C7.363 15.821 9.575 15 12 15s4.637.821 6.258 1.984Z"
    />
  </g>
  <g id="warning">
    <path
      d="m13.3 3.148 8.633 14.954a1.5 1.5 0 0 1-1.299 2.25H3.366a1.5 1.5 0 0 1-1.299-2.25l8.634-14.954c.577-1 2.02-1 2.598 0ZM12 15a1 1 0 1 0 0 2 1 1 0 0 0 0-2Zm0-7a1 1 0 0 0-.993.883L11 9v4a1 1 0 0 0 1.993.117L13 13V9a1 1 0 0 0-1-1Z"
    />
  </g>
  <g id="x">
    <path
      d="m12 14.122 5.303 5.303a1.5 1.5 0 1 0 2.122-2.122L14.12 12l5.304-5.303a1.5 1.5 0 0 0-2.122-2.12L12 9.878 6.697 4.576a1.5 1.5 0 1 0-2.122 2.12L9.88 12l-5.304 5.304a1.5 1.5 0 1 0 2.122 2.12L12 14.122Z"
    />
  </g>
  <g id="pencil">
    <path
      d="M16.724 3.03a2 2 0 0 0-2.828 0L3.582 13.344a2 2 0 0 0-.586 1.414v5.233c0 .557.453 1.01 1.01 1.01L20 21a1 1 0 1 0 0-2h-7.932l8.899-8.9a2 2 0 0 0 0-2.827L16.724 3.03Z"
    />
  </g>
  <g id="envelope">
    <path
      d="M20 4a2 2 0 0 1 1.995 1.85L22 6v12a2 2 0 0 1-1.85 1.995L20 20H4a2 2 0 0 1-1.995-1.85L2 18V6a2 2 0 0 1 1.85-1.995L4 4h16Zm0 3.414-6.94 6.94a1.5 1.5 0 0 1-2.12 0L4 7.414V18h16V7.414ZM18.586 6H5.414L12 12.586 18.586 6Z"
    />
  </g>
  <g id="delete">
    <path
      d="M8.108 3a3 3 0 0 0-2.544 1.41l-4.08 6.53a2 2 0 0 0 0 2.12l4.08 6.53A3 3 0 0 0 8.108 21H19a3 3 0 0 0 3-3V6a3 3 0 0 0-3-3H8.108Zm8.427 12.536a1 1 0 0 1-1.414 0l-2.12-2.122-2.122 2.122a1.001 1.001 0 0 1-1.415-1.415L11.586 12 9.464 9.879a1 1 0 1 1 1.415-1.415L13 10.586l2.121-2.122a1 1 0 0 1 1.414 1.415L14.415 12l2.12 2.121a1.001 1.001 0 0 1 0 1.415Z"
    />
  </g>
  <g id="trash">
    <path
      d="M7.823 3.368A2 2 0 0 1 9.721 2h4.558a2 2 0 0 1 1.898 1.368L16.72 5H20a1 1 0 1 1 0 2h-1v12a3 3 0 0 1-3 3H8a3 3 0 0 1-3-3V7H4a1 1 0 0 1 0-2h3.28l.543-1.632ZM9.387 5l.334-1h4.558l.334 1H9.387Z"
    />
  </g>
  <g id="duplicate">
    <path
      d="M9 2a2 2 0 0 0-2 2v2h2V4h11v11h-2v2h2a2 2 0 0 0 2-2V4a2 2 0 0 0-2-2H9ZM4 7a2 2 0 0 0-2 2v11a2 2 0 0 0 2 2h11a2 2 0 0 0 2-2V9a2 2 0 0 0-2-2H4Zm0 2h11v11H4V9Z"
    />
  </g>
</svg>
