<svg xmlns="http://www.w3.org/2000/svg" viewBox="0 0 24 24">
    <symbol id="ellipsis">
        <path d="M5 10a2 2 0 1 1 0 4 2 2 0 0 1 0-4Zm7 0a2 2 0 1 1 0 4 2 2 0 0 1 0-4Zm7 0a2 2 0 1 1 0 4 2 2 0 0 1 0-4Z"/>
    </symbol>
    <symbol id="inbox">
        <path d="M3 6a3 3 0 0 1 3-3h12a3 3 0 0 1 3 3v12a3 3 0 0 1-3 3H6a3 3 0 0 1-3-3V6Zm11 8a1 1 0 0 1 1-1h4V6a1 1 0 0 0-1-1H6a1 1 0 0 0-1 1v7h4a1 1 0 0 1 1 1 2 2 0 0 0 4 0Z"/>
    </symbol>
    <symbol id="search">
        <path d="M5.5 10a4.5 4.5 0 1 1 9 0 4.5 4.5 0 0 1-9 0ZM10 2.5a7.5 7.5 0 1 0 4.136 13.757l4.803 4.804a1.5 1.5 0 0 0 2.122-2.122l-4.804-4.803A7.5 7.5 0 0 0 10 2.5Z"/>
    </symbol>
    <symbol id="arrow-left">
        <path d="M3.283 10.94a1.5 1.5 0 0 0 0 2.12l5.656 5.658a1.503 1.503 0 0 0 2.122 0 1.5 1.5 0 0 0 0-2.122L7.965 13.5H19.5a1.5 1.5 0 1 0 0-3H7.965l3.096-3.096a1.5 1.5 0 1 0-2.122-2.121L3.283 10.94Z"/>
    </symbol>
    <symbol id="arrow-right">
        <path d="m15.06 5.44 5.657 5.657a1.5 1.5 0 0 1 0 2.12l-5.656 5.658a1.5 1.5 0 1 1-2.122-2.122l3.096-3.096H4.5a1.5 1.5 0 1 1 0-3h11.535L12.94 7.56a1.5 1.5 0 1 1 2.122-2.121h-.002Z"/>
    </symbol>
    <symbol id="arrow-down">
        <path d="M10.5 16.035 7.404 12.94a1.5 1.5 0 0 0-2.122 2.121l5.657 5.657a1.499 1.499 0 0 0 2.122 0l5.657-5.656a1.499 1.499 0 0 0-.487-2.447 1.5 1.5 0 0 0-1.635.325L13.5 16.035V4.5a1.5 1.5 0 1 0-3 0v11.535Z"/>
    </symbol>
    <symbol id="chevron-down">
        <path d="M13.06 16.06a1.5 1.5 0 0 1-2.12 0l-5.658-5.656a1.5 1.5 0 0 1 2.122-2.121L12 12.879l4.596-4.596a1.5 1.5 0 0 1 2.122 2.12l-5.657 5.658-.001-.001Z"/>
    </symbol>
    <symbol id="arrow-out">
        <path d="M18 4.5A1.5 1.5 0 0 1 19.5 6v8a1.5 1.5 0 1 1-3 0V9.621l-9.097 9.097a1.5 1.5 0 0 1-2.12-2.122L14.377 7.5H10a1.5 1.5 0 0 1 0-3h8Z"/>
    </symbol>
    <symbol id="arrow-up">
        <path d="M13.06 3.283a1.5 1.5 0 0 0-2.12 0L5.281 8.939a1.5 1.5 0 1 0 2.122 2.122L10.5 7.965V19.5a1.5 1.5 0 0 0 3 0V7.965l3.096 3.096a1.5 1.5 0 1 0 2.122-2.122L13.06 3.283Z"/>
    </symbol>
    <symbol id="plus">
        <path d="M10.5 20a1.5 1.5 0 1 0 3 0v-6.5H20a1.5 1.5 0 1 0 0-3h-6.5V4a1.5 1.5 0 1 0-3 0v6.5H4a1.5 1.5 0 1 0 0 3h6.5V20Z"/>
    </symbol>
    <symbol id="profile">
        <path d="M12 2C6.477 2 2 6.477 2 12s4.477 10 10 10 10-4.477 10-10S17.523 2 12 2ZM8.5 9.5a3.5 3.5 0 1 1 7 0 3.5 3.5 0 0 1-7 0Zm9.758 7.484A7.985 7.985 0 0 1 12 20a7.985 7.985 0 0 1-6.258-3.016C7.363 15.821 9.575 15 12 15s4.637.821 6.258 1.984Z"/>
    </symbol>
</svg>
